<svg xmlns="http://www.w3.org/2000/svg" width="20.275" height="18.932" viewBox="0 0 20.275 18.932"><defs><style>.a{fill-rule:evenodd;}</style></defs><path class="a" d="M46.31,45.767a1.056,1.056,0,1,0,1.056-1.029A1.043,1.043,0,0,0,46.31,45.767Zm-10.56,5.556v1.132a.94.94,0,0,0,.95.926H48.422l-4.038-3.869a.872.872,0,0,0-1.216,0l-.854.819L40.16,48.278a.952.952,0,0,0-1.28,0Zm-3.8,7a1.668,1.668,0,0,0,1.689,1.646h16.9a1.668,1.668,0,0,0,1.689-1.646V42.68a1.668,1.668,0,0,0-1.689-1.646h-16.9a1.668,1.668,0,0,0-1.689,1.646V58.32ZM34.99,43.092H49.183a.915.915,0,0,1,.929.905V54.122a.915.915,0,0,1-.929.905H34.99a.915.915,0,0,1-.929-.905V44A.915.915,0,0,1,34.99,43.092Z" transform="translate(-31.949 -41.034)"/></svg>