<svg xmlns="http://www.w3.org/2000/svg" width="62" height="61.989" viewBox="0 0 62 61.989"><defs><style>.a{fill:#fedcb1;}</style></defs><path class="a" d="M49,12H41v6h8Zm-2,4H43V14h4Z" transform="translate(-1 -1.011)"/><path class="a" d="M63,42,58.82,21H55V14.829l2.253,1.609A2.974,2.974,0,0,0,59,17a3,3,0,0,0,2.96-3.495,2.971,2.971,0,0,0-1.216-1.945l-14-10a3.043,3.043,0,0,0-3.485,0l-14,10a3,3,0,0,0-.7,4.187,3.083,3.083,0,0,0,4.184.695L35,14.828V21H25.389L24,19.762a3.074,3.074,0,0,0-3.989,0l-18,16a3,3,0,1,0,3.986,4.484L7,39.348V63H61V49h2ZM57.18,23,61,42.1V43H37V39.348l1.006.894a3.088,3.088,0,0,0,4.236-.248,3,3,0,0,0-.249-4.234L37.764,32H55V23ZM47,30H43V22h4ZM31.581,14.813a1.031,1.031,0,0,1-1.4-.231.993.993,0,0,1-.173-.747.98.98,0,0,1,.406-.649l14-10a1.017,1.017,0,0,1,1.161,0l14,10a1,1,0,0,1,.232,1.391,1.023,1.023,0,0,1-1.4.232L45,5.229ZM45,7.686,53,13.4V30H49V20H41V30H37V13.4ZM35,23v6.543L27.639,23ZM4.665,38.748a1.027,1.027,0,0,1-1.413-.084,1,1,0,0,1,.084-1.411l18-16a1,1,0,0,1,1.33,0l18,16a1,1,0,0,1,.081,1.412,1.028,1.028,0,0,1-1.412.082L22,23.339ZM22,26.015,35,37.57V41H27V33H17v8H9V37.57ZM25,41H19V35h6ZM9,43H35V61H23V49H11V61H9ZM21,61H13V51h8Zm38,0H37V49H59ZM37,47V45H61v2Z" transform="translate(-1 -1.011)"/><path class="a" d="M33,45H25v8h8Zm-2,6H27V47h4Z" transform="translate(-1 -1.011)"/><path class="a" d="M47,59V51H39v8Zm-6-6h4v4H41Z" transform="translate(-1 -1.011)"/><path class="a" d="M57,51H49v8h8Zm-2,6H51V53h4Z" transform="translate(-1 -1.011)"/></svg>