<svg xmlns="http://www.w3.org/2000/svg" width="62" height="62" viewBox="0 0 62 62"><defs><style>.a{fill:#fedcb1;}</style></defs><path class="a" d="M8,29h8a1,1,0,0,0,1-1V22a1,1,0,0,0-1-1H8a1,1,0,0,0-1,1v6A1,1,0,0,0,8,29Zm7-2H13V23h2ZM9,23h2v4H9Z" transform="translate(-1 -1)"/><path class="a" d="M20,29h8a1,1,0,0,0,1-1V22a1,1,0,0,0-1-1H20a1,1,0,0,0-1,1v6A1,1,0,0,0,20,29Zm7-2H25V23h2Zm-6-4h2v4H21Z" transform="translate(-1 -1)"/><g transform="translate(0 0)"><path class="a" d="M62.287,32.042,33,23.256V22h7a4,4,0,0,0,1-7.874c0-.042,0-.084,0-.126a4.992,4.992,0,0,0-9.584-1.967,4.949,4.949,0,0,0-1.526.443L18.707,1.293a1,1,0,0,0-1.414,0l-14,14A1,1,0,0,0,3,16V57H2a1,1,0,0,0-1,1v4a1,1,0,0,0,1,1H62a1,1,0,0,0,1-1V58a1,1,0,0,0-1-1H61V38.744l.713.214A1,1,0,0,0,63,38V33A1,1,0,0,0,62.287,32.042ZM31,17V31H5V17Zm0,20H29V33h2ZM11,33v4H9V33Zm2,0h2v4H13Zm4,0h2v4H17Zm4,0h2v4H21Zm4,0h2v4H25ZM7,33v4H5V33Zm24,6v2H5V39Zm.935-25c.033.005.127.015.16.016a.966.966,0,0,0,1.011-.752,2.987,2.987,0,1,1,5.781,1.5,1,1,0,0,0,.187.881.97.97,0,0,0,.819.373A.281.281,0,0,0,40,16a2,2,0,0,1,0,4H33V16a1,1,0,0,0-.293-.707l-1.246-1.246a2.66,2.66,0,0,1,.474-.05ZM18,3.414,29.586,15H6.414ZM5,43H31V57H25V48a1,1,0,0,0-1-1H12a1,1,0,0,0-1,1v9H5Zm8,14V49h4v8Zm6-8h4v8H19ZM61,61H3V59H61ZM55,45H37V43H55ZM37,47H55v2H37Zm0,4H55v6H37Zm22,6H57V42a1,1,0,0,0-1-1H36a1,1,0,0,0-1,1V57H33V30.344l26,7.8Zm2-20.344-28-8.4V25.344l28,8.4Z" transform="translate(-1 -1)"/></g><path class="a" d="M50,14h8a5,5,0,0,0,.584-9.966A4.992,4.992,0,0,0,49,6c0,.042,0,.084,0,.126A4,4,0,0,0,50,14Zm-.062-6c.034,0,.134.016.168.017a.961.961,0,0,0,.819-.373,1,1,0,0,0,.187-.881,2.987,2.987,0,1,1,5.782-1.5,1,1,0,0,0,1.011.752c.054,0,.107-.008.1-.013a3,3,0,0,1,0,6H50a2,2,0,0,1-.062-4Z" transform="translate(-1 -1)"/></svg>