<svg xmlns="http://www.w3.org/2000/svg" width="62" height="62" viewBox="0 0 62 62"><defs><style>.a{fill:#fedcb1;}</style></defs><path class="a" d="M62.707,31.293l-30-30a1,1,0,0,0-1.414,0l-30,30A1,1,0,0,0,2,33H7V57H6a1,1,0,0,0-1,1v4a1,1,0,0,0,1,1H58a1,1,0,0,0,1-1V58a1,1,0,0,0-1-1H57V33h5a1,1,0,0,0,.707-1.707ZM57,61H7V59H57ZM27,57H15V39H27Zm2,0V38a1,1,0,0,0-1-1H14a1,1,0,0,0-1,1V57H9V32.414l23-23,23,23V57ZM56.414,31,32.707,7.293a1,1,0,0,0-1.414,0L7.586,31H4.414L32,3.414,59.586,31Z" transform="translate(-1 -1)"/><path class="a" d="M39,26a7,7,0,1,0-7,7A7,7,0,0,0,39,26ZM27,26a5,5,0,1,1,5,5,5,5,0,0,1-5-5Z" transform="translate(-1 -1)"/><path class="a" d="M52,37H32a1,1,0,0,0-1,1V52a1,1,0,0,0,1,1H52a1,1,0,0,0,1-1V38A1,1,0,0,0,52,37Zm-1,7H43V39h8ZM41,39v5H33V39Zm-8,7h8v5H33Zm10,5V46h8v5Z" transform="translate(-1 -1)"/><rect class="a" width="2" height="4" transform="translate(16 44)"/></svg>